<svg width="1440" height="526" viewBox="0 0 1440 526" fill="none" xmlns="http://www.w3.org/2000/svg">
<g filter="url(#filter0_d)">
<path d="M1440.12 461.692C1440.12 461.692 1440.12 461.692 1440.12 461.692L1440.12 471.642C1418.12 488.642 1396.62 503.641 1372.62 519.641C1361.22 526.841 1349.82 532.961 1338.42 539.081C1330.82 543.161 1323.22 547.241 1315.62 551.641C1255.62 583.641 1194.62 602.641 1126.62 615.641C1082.62 623.641 1040.62 625.641 996.62 624.641C961.62 623.641 928.62 619.641 893.62 611.641C864.62 604.641 838.62 597.641 811.62 586.641C806.85 584.521 802.15 582.472 797.483 580.436C784.54 574.791 771.85 569.256 758.62 562.641C681.81 520.745 625.794 465.446 567.388 407.788C542.497 383.216 517.173 358.216 489.62 333.642C489.12 333.142 488.37 332.892 487.62 332.642C486.87 332.392 486.12 332.142 485.62 331.642C469.62 316.642 450.62 305.642 431.62 294.642C431.12 294.142 430.37 294.142 429.62 294.142C428.87 294.142 428.12 294.142 427.62 293.642C362.62 260.642 286.62 261.642 219.62 285.642C174.62 301.642 135.62 325.642 98.6201 356.642C81.6201 371.642 66.6201 386.642 50.6201 403.642C49.8776 404.501 49.1358 405.359 48.3951 406.216C30.1825 427.289 12.6121 447.618 0.120117 471.642C0.120117 472.142 1.45012 93.9515 0.120117 67.0315C0.733047 66.671 1.36642 66.3113 2.01753 65.9524C6.57529 63.4402 12.0022 60.9677 17.3712 58.5216C17.6658 58.3874 17.9602 58.2533 18.2543 58.1192C22.6654 56.1085 27.0028 54.1151 30.7498 52.1317C30.7499 52.1316 30.7496 52.1317 30.7498 52.1317C78.6398 28.3017 127.77 11.7515 182.64 4.21151C184.201 3.99707 185.754 3.78778 187.301 3.58374C381.562 -21.5934 481.714 89.6073 591.09 220.462C718.106 358.284 870.891 460.981 1045.3 494.357C1162.69 516.822 1294.82 501.683 1416.86 468.082C1418.56 467.557 1420.71 466.934 1423.02 466.285C1425.86 465.497 1428.77 464.728 1431.64 463.972C1434.56 463.202 1437.43 462.444 1440.12 461.692Z" fill="url(#paint0_linear)"/>
</g>
<defs>
<filter id="filter0_d" x="-3.87988" y="0" width="1448" height="632.879" filterUnits="userSpaceOnUse" color-interpolation-filters="sRGB">
<feFlood flood-opacity="0" result="BackgroundImageFix"/>
<feColorMatrix in="SourceAlpha" type="matrix" values="0 0 0 0 0 0 0 0 0 0 0 0 0 0 0 0 0 0 127 0"/>
<feOffset dy="4"/>
<feGaussianBlur stdDeviation="2"/>
<feColorMatrix type="matrix" values="0 0 0 0 0 0 0 0 0 0 0 0 0 0 0 0 0 0 0.25 0"/>
<feBlend mode="normal" in2="BackgroundImageFix" result="effect1_dropShadow"/>
<feBlend mode="normal" in="SourceGraphic" in2="effect1_dropShadow" result="shape"/>
</filter>
<linearGradient id="paint0_linear" x1="720.12" y1="0" x2="720.12" y2="624.879" gradientUnits="userSpaceOnUse">
<stop stop-color="#439CFB" stop-opacity="0.69"/>
<stop offset="1" stop-color="#F187FB" stop-opacity="0.71"/>
</linearGradient>
</defs>
</svg>
